<svg xmlns="http://www.w3.org/2000/svg" viewBox="0 0 410 404" fill="none">
  <path d="M53.853 35.162c-3.274-7.696 2.428-16.18 10.73-15.373l282.252 27.517c7.698.75 11.27 9.86 5.757 15.757L219.582 207.284a12 12 0 0 1-17.631-.093L53.853 35.162Z" fill="url(#a)"/>
  <path d="m52.364 45.353 110.984 302.466a12 12 0 0 0 19.436 4.37l58.891-53.85a12 12 0 0 1 14.809-.98l84.135 56.238c6.281 4.198 14.592-.63 13.672-7.995L316.35 54.821a12 12 0 0 0-9.987-10.13L55.25 29.136a12 12 0 0 0-13.02 16.217Z" fill="url(#b)"/>
  <defs>
    <linearGradient id="a" x1="292.965" x2="113.278" y1="-15.142" y2="193.508" gradientUnits="userSpaceOnUse">
      <stop stop-color="#00C1FF"/>
      <stop offset="1" stop-color="#0066FF"/>
    </linearGradient>
    <linearGradient id="b" x1="272.664" x2="146.184" y1="43.081" y2="344.37" gradientUnits="userSpaceOnUse">
      <stop stop-color="#FD3A84"/>
      <stop offset="1" stop-color="#FFA68D"/>
    </linearGradient>
  </defs>
</svg>
